Coordinates
version=1
nRows=5
nColumns=42
inDegrees=yes

Units are S.I. units (second, meters, Newtons, ...)
If the header above contains a line with 'inDegrees', this indicates whether rotational values are in degrees (yes) or radians (no).

endheader
time	pelvis_tilt	pelvis_list	pelvis_rotation	pelvis_tx	pelvis_ty	pelvis_tz	hip_flexion_r	hip_adduction_r	hip_rotation_r	knee_angle_r	knee_adduction_r	knee_angle_r_beta	ankle_angle_r	subtalar_angle_r	mtp_angle_r	hip_flexion_l	hip_adduction_l	hip_rotation_l	knee_angle_l	knee_adduction_l	knee_angle_l_beta	ankle_angle_l	subtalar_angle_l	mtp_angle_l	lumbar_extension	lumbar_bending	lumbar_rotation	arm_flex_r	arm_add_r	arm_rot_r	elbow_flex_r	pro_sup_r	wrist_flex_r	wrist_dev_r	arm_flex_l	arm_add_l	arm_rot_l	elbow_flex_l	pro_sup_l	wrist_flex_l	wrist_dev_l
      1.65000000	      8.30151364	     -0.78110498	     -0.23887644	      0.94569581	      1.00285635	     -0.22628745	     16.75689518	     -5.13054791	     -7.47552820	     20.45747373	      8.88566631	      0.35705027	      1.74619576	     -7.03538888	     -7.50842527	    -20.65597411	     -3.41356427	     -0.09262795	      6.07873209	     12.09713343	      0.10609389	     14.07838504	      1.11975283	     -7.50842527	    -20.65793470	      0.45699813	     -4.63748953	     -7.68288283	     -5.87982183	    -21.44281362	      8.53257601	     90.00000001	      0.00000000	      0.00000000	     17.86569514	    -19.22621440	     -6.53869933	     41.57821517	     90.00000001	      0.00000000	      0.00000000
      1.66000000	      8.18799050	     -0.70417659	      0.03669347	      0.95985536	      0.99973833	     -0.22629712	     16.68672780	     -5.15468891	     -8.65248994	     16.95953419	      8.97870586	      0.29599971	      2.08293186	     -5.37863868	     -7.50811630	    -21.34072714	     -3.43905809	     -0.07145205	      6.24665858	     12.08579787	      0.10902476	     14.69147659	      1.57933130	     -7.50811630	    -20.50785596	      0.57071504	     -4.97017291	     -8.44637016	     -5.70558796	    -21.64331074	      8.49301176	     90.00000001	      0.00000000	      0.00000000	     18.46808354	    -19.79278205	     -5.89726200	     42.71814947	     90.00000001	      0.00000000	      0.00000000
      1.67000000	      8.03793644	     -0.61932713	      0.33123537	      0.97416146	      0.99648601	     -0.22632869	     16.69961596	     -5.23673457	     -9.86494149	     13.87198450	      9.22031609	      0.24211180	      2.45601168	     -3.62254184	     -7.50765656	    -21.95023138	     -3.48791261	     -0.08037188	      6.51781688	     12.10767564	      0.11375736	     15.32582100	      2.07507621	     -7.50765656	    -20.30611218	      0.68035195	     -5.30759267	     -9.16541711	     -5.55319427	    -21.94849844	      8.46481942	     90.00000001	      0.00000000	      0.00000000	     19.02215738	    -20.30871083	     -5.34795293	     43.78179827	     90.00000001	      0.00000000	      0.00000000
      1.68000000	      7.59052041	     -0.26170234	      0.48883303	      0.98840240	      0.99282991	     -0.22658435	     17.19750680	     -5.70916033	    -10.64326858	     11.38215131	      9.78787745	      0.19865602	      2.60542739	     -2.42366723	     -7.50754000	    -22.19176402	     -3.09066531	      0.02024236	      6.86310554	     11.92038251	      0.11978379	     15.79559578	      2.23867098	     -7.50754000	    -19.78287465	      0.50089768	     -5.63640207	     -9.88440990	     -5.44164143	    -22.04247506	      8.54456086	     90.00000001	      0.00000000	      0.00000000	     19.51358247	    -20.72938794	     -4.99976322	     44.65558958	     90.00000001	      0.00000000	      0.00000000
      1.69000000	      7.74230818	     -0.25645580	      0.90152454	      1.00310230	      0.98999545	     -0.22654034	     16.88713512	     -5.74744863	    -11.73873581	      9.10453927	     10.19981151	      0.15890419	      3.00575848	     -0.95183318	     -7.50728433	    -23.12281072	     -3.33070787	      0.18378428	      7.15656252	     12.00494933	      0.12490558	     16.24053775	      2.70406915	     -7.50728433	    -19.91048584	      0.70767312	     -6.04410677	    -10.43382189	     -5.31950597	    -22.38120922	      8.50388978	     90.00000001	      0.00000000	      0.00000000	     19.88862477	    -21.28165455	     -4.39908181	     45.87387163	     90.00000001	      0.00000000	      0.00000000
